<?xml version="1.0" standalone="no"?>
<!DOCTYPE svg PUBLIC "-//W3C//DTD SVG 20010904//EN"
 "http://www.w3.org/TR/2001/REC-SVG-20010904/DTD/svg10.dtd">
<svg version="1.0" xmlns="http://www.w3.org/2000/svg"
 width="1056.000000pt" height="1056.000000pt" viewBox="0 0 1056.000000 1056.000000"
 preserveAspectRatio="xMidYMid meet">
<metadata>
Created by potrace 1.14, written by Peter Selinger 2001-2017
</metadata>
<g transform="translate(0.000000,1056.000000) scale(0.100000,-0.100000)"
fill="#000000" stroke="none">
<path d="M3987 10553 c-3 -2 -34 -6 -69 -8 -35 -2 -64 -4 -65 -5 -3 -3 -5 -3
-53 -14 -48 -11 -119 -34 -155 -51 -41 -19 -89 -37 -94 -35 -2 1 -7 -2 -10 -7
-3 -4 -26 -19 -51 -32 -115 -62 -240 -160 -339 -265 -31 -32 -63 -67 -72 -76
-9 -10 -36 -44 -60 -76 -23 -33 -46 -60 -51 -62 -4 -2 -8 -9 -8 -16 0 -6 -7
-21 -15 -31 -34 -44 -64 -96 -123 -213 -34 -67 -62 -124 -62 -127 0 -3 -10
-26 -21 -52 -12 -27 -22 -55 -24 -63 -2 -8 -12 -40 -23 -70 -20 -54 -61 -188
-67 -219 -2 -9 -8 -36 -15 -61 -14 -50 -16 -61 -24 -116 -4 -22 -8 -46 -11
-54 -2 -8 -6 -31 -9 -50 -3 -19 -8 -46 -11 -60 -2 -13 -7 -52 -10 -87 -3 -34
-8 -72 -10 -85 -26 -134 -26 -653 0 -898 8 -72 17 -146 21 -170 2 -14 7 -41
10 -60 5 -35 20 -120 30 -175 12 -67 45 -206 74 -315 17 -63 33 -124 35 -135
3 -11 18 -58 35 -105 17 -47 33 -94 35 -105 7 -31 77 -209 86 -221 11 -14 -12
-45 -113 -149 -121 -126 -186 -196 -237 -253 -25 -30 -57 -66 -71 -81 -14 -15
-41 -47 -60 -71 -19 -24 -40 -48 -45 -54 -15 -16 -147 -186 -165 -212 -8 -12
-42 -60 -75 -105 -33 -46 -62 -88 -65 -94 -3 -5 -27 -43 -53 -83 -65 -98 -173
-288 -224 -392 -53 -109 -93 -197 -93 -204 0 -4 -8 -25 -19 -49 -10 -23 -24
-58 -31 -77 -7 -19 -16 -44 -20 -55 -18 -46 -31 -81 -35 -100 -2 -11 -13 -52
-24 -90 -11 -39 -22 -81 -25 -95 -3 -14 -10 -44 -16 -68 -5 -23 -12 -57 -15
-75 -2 -17 -7 -43 -10 -57 -27 -121 -26 -521 1 -653 3 -16 8 -38 10 -50 25
-154 126 -423 182 -489 8 -10 12 -18 9 -18 -8 0 71 -116 126 -185 41 -51 217
-225 228 -225 3 0 17 -10 30 -21 93 -82 333 -200 457 -224 12 -2 25 -6 30 -8
4 -3 32 -8 62 -12 30 -4 66 -9 80 -11 32 -5 216 -5 255 0 17 2 57 7 90 11 33
4 68 12 78 17 10 5 21 7 23 5 3 -3 29 2 57 9 29 8 59 16 68 18 31 8 175 57
191 66 10 6 22 10 27 10 6 0 49 19 98 42 48 23 94 42 101 44 8 1 22 10 31 18
10 9 24 16 32 16 8 0 19 4 24 9 6 6 37 24 70 42 128 68 431 267 526 347 15 12
31 22 37 22 6 0 12 3 14 8 2 4 35 32 73 62 39 29 78 61 87 69 9 9 23 21 30 26
7 6 40 33 73 60 33 28 68 57 78 65 21 17 32 27 141 125 43 39 94 85 113 103
19 17 36 32 38 32 2 0 21 -16 42 -36 21 -20 82 -77 137 -128 54 -50 122 -113
150 -141 29 -27 115 -108 191 -180 331 -312 347 -328 340 -361 -21 -102 -12
-307 19 -429 22 -86 38 -141 61 -201 15 -38 28 -73 29 -79 12 -44 145 -311
206 -410 48 -79 160 -247 170 -255 3 -3 17 -21 30 -40 14 -19 30 -42 37 -50
36 -45 131 -159 153 -182 75 -79 205 -209 251 -248 28 -25 61 -53 73 -64 37
-33 199 -152 258 -190 191 -122 424 -228 618 -281 3 -1 12 -4 20 -8 14 -5 77
-20 140 -33 157 -31 419 -47 500 -29 14 3 41 7 60 10 144 20 291 87 381 175
59 57 118 165 133 241 2 13 9 44 14 68 13 53 8 258 -7 326 -22 101 -64 230
-92 287 -11 21 -19 42 -19 49 0 6 -9 24 -21 40 -11 16 -18 29 -15 29 3 0 -6
16 -19 36 -14 20 -25 43 -25 50 0 8 -4 14 -10 14 -5 0 -10 7 -10 15 0 8 -3 15
-8 15 -4 0 -13 12 -20 27 -6 16 -31 53 -54 84 -24 31 -52 69 -63 84 -44 62
-154 185 -240 270 -119 117 -141 136 -255 224 -52 40 -96 77 -98 82 -2 5 -8 9
-13 9 -5 0 -32 16 -59 35 -107 75 -147 102 -213 143 -38 23 -70 42 -72 42 -2
0 -36 19 -77 43 -109 64 -438 222 -438 211 0 -3 -12 1 -27 10 -16 8 -55 24
-88 36 -33 12 -69 26 -80 30 -67 27 -279 83 -365 96 -19 3 -42 7 -50 9 -65 17
-279 23 -360 9 -25 -4 -49 -8 -55 -9 -5 0 -23 11 -40 26 -95 85 -172 157 -191
177 -12 12 -24 22 -27 22 -3 0 -26 19 -50 42 -24 24 -79 76 -123 117 -176 163
-454 434 -454 443 0 5 37 46 83 92 76 77 280 292 343 361 35 39 150 166 189
208 17 19 53 60 80 92 28 32 55 63 60 69 6 6 39 45 75 86 35 41 71 82 80 91 8
8 30 34 48 56 80 99 69 93 157 91 44 0 100 2 125 6 119 19 127 21 163 35 15 6
27 8 27 6 0 -8 213 72 305 115 153 71 382 208 500 299 52 40 53 41 100 76 21
16 46 36 55 45 9 8 36 31 60 50 64 51 315 301 401 400 87 99 279 353 279 368
0 6 4 12 8 14 18 7 151 232 233 393 117 231 251 575 275 705 3 14 7 32 11 40
11 26 14 44 16 87 2 34 -3 47 -28 74 -31 33 -97 68 -128 69 -24 0 -38 -16 -61
-65 -106 -228 -295 -592 -324 -623 -7 -8 -10 -17 -7 -22 3 -5 2 -10 -3 -12 -4
-1 -39 -55 -76 -118 -112 -187 -347 -520 -368 -520 -4 0 -8 -4 -8 -10 0 -17
-161 -179 -242 -244 -113 -90 -227 -144 -302 -142 -20 1 -36 -2 -36 -6 0 -10
-90 17 -137 41 -24 12 -43 25 -43 30 0 5 19 33 43 63 54 70 49 64 269 361 103
138 192 257 196 262 5 6 65 87 133 180 68 94 127 175 131 180 12 14 51 67 239
325 144 198 251 343 278 376 80 99 91 190 28 238 -18 13 -47 27 -65 29 -36 6
-91 -9 -107 -29 -14 -17 -178 -217 -187 -229 -5 -5 -18 -21 -29 -35 -12 -14
-33 -41 -48 -60 -14 -19 -32 -41 -39 -48 -7 -8 -25 -30 -40 -50 -15 -21 -29
-39 -33 -42 -3 -3 -56 -70 -119 -150 -63 -80 -117 -147 -120 -150 -3 -3 -21
-25 -39 -50 -19 -25 -39 -49 -45 -55 -6 -5 -33 -39 -61 -75 -27 -36 -72 -92
-100 -126 -27 -33 -61 -75 -75 -94 -14 -18 -29 -38 -35 -44 -5 -6 -28 -34 -49
-61 -22 -28 -46 -57 -53 -65 -8 -8 -21 -25 -31 -37 -9 -12 -87 -107 -172 -212
l-155 -190 -23 22 c-13 12 -37 50 -54 85 -25 54 -30 76 -30 140 0 43 7 104 16
137 9 33 18 67 21 75 19 75 165 349 212 398 7 7 20 26 30 42 9 17 21 30 25 30
4 0 8 6 8 13 0 6 15 29 33 49 17 20 42 49 54 65 112 146 381 429 586 617 43
39 96 88 118 109 21 20 41 37 44 37 3 0 18 12 33 28 15 15 51 47 80 70 50 42
63 70 44 98 -13 21 -80 53 -120 58 -56 6 -85 -9 -306 -156 -342 -226 -723
-591 -959 -919 -102 -142 -127 -179 -127 -187 0 -6 -3 -12 -8 -14 -8 -4 -73
-103 -134 -208 -40 -69 -201 -382 -199 -388 1 -1 -6 -19 -15 -40 -9 -20 -21
-48 -26 -62 -6 -14 -12 -29 -12 -35 -1 -5 -6 -19 -12 -30 -16 -27 -88 -252
-113 -350 -20 -82 -27 -113 -37 -175 -3 -19 -7 -46 -10 -60 -22 -117 -22 -343
1 -450 6 -27 -13 -51 -189 -244 -44 -49 -91 -101 -104 -115 -158 -176 -354
-384 -606 -641 l-142 -146 -35 36 c-63 67 -124 134 -189 210 -36 41 -69 79
-75 85 -5 7 -28 33 -50 60 -22 26 -45 53 -50 59 -96 101 -565 729 -565 756 0
6 -4 10 -10 10 -5 0 -10 6 -10 14 0 8 -3 16 -7 18 -9 4 -53 64 -53 73 0 3 -16
28 -35 55 -19 28 -32 50 -28 50 3 0 -3 10 -14 23 -11 12 -22 27 -24 32 -4 11
-65 112 -91 153 -10 15 -21 34 -25 42 -3 8 -16 31 -28 50 -25 41 -77 134 -114
205 -14 28 -28 52 -31 55 -10 10 -240 460 -240 469 0 3 19 26 41 51 83 91 177
196 210 235 19 22 36 42 39 45 24 24 110 130 110 136 0 3 8 14 18 23 9 9 31
34 48 56 82 106 245 327 285 385 24 36 47 67 50 70 5 4 38 52 74 109 6 9 40
61 77 116 230 347 402 665 568 1050 26 58 70 181 94 260 15 50 30 97 33 105 9
22 11 32 18 62 3 15 9 38 15 52 5 13 7 26 4 29 -2 2 0 15 5 28 4 13 12 44 15
69 59 383 19 646 -133 868 -98 142 -277 275 -452 335 -41 14 -90 28 -109 32
-42 8 -356 15 -363 8z m226 -287 c78 -12 202 -61 272 -106 63 -42 182 -161
173 -173 -1 -3 5 -13 14 -23 14 -17 35 -57 44 -89 2 -5 10 -35 19 -65 32 -110
26 -266 -19 -500 -11 -57 -60 -206 -101 -305 -5 -11 -9 -22 -10 -25 -1 -3 -8
-18 -15 -35 -7 -16 -14 -32 -14 -35 -7 -39 -270 -531 -288 -538 -4 -2 -8 -9
-8 -14 0 -12 -24 -51 -137 -226 -40 -62 -73 -117 -73 -121 0 -5 -4 -11 -8 -13
-4 -1 -26 -30 -48 -63 -68 -103 -154 -226 -237 -340 -102 -140 -370 -498 -377
-505 -4 -4 -132 -168 -215 -278 -14 -18 -24 1 -91 183 -41 111 -102 298 -110
332 -2 12 -9 34 -14 48 -5 14 -7 25 -4 25 2 0 0 8 -5 18 -5 9 -12 31 -15 47
-3 17 -10 50 -16 75 -11 45 -27 124 -35 170 -2 14 -7 36 -10 50 -3 14 -8 43
-10 65 -3 22 -7 56 -10 75 -23 168 -27 245 -28 455 0 179 9 320 28 435 26 157
27 161 59 280 132 500 424 905 782 1084 217 108 348 137 507 112z m-1113
-4359 c68 -139 215 -412 268 -497 12 -19 25 -42 29 -50 4 -8 26 -45 50 -83 24
-37 43 -72 43 -77 0 -6 5 -10 10 -10 6 0 10 -5 10 -10 0 -6 56 -93 124 -195
117 -173 132 -195 164 -230 6 -7 12 -18 12 -23 0 -6 3 -12 8 -14 4 -1 27 -30
52 -63 25 -33 50 -66 57 -75 25 -34 269 -326 288 -346 11 -12 49 -54 85 -94
98 -109 120 -133 278 -293 l145 -147 -24 -20 c-12 -12 -59 -53 -103 -93 -91
-82 -117 -106 -143 -128 -10 -8 -39 -33 -64 -55 -112 -96 -159 -134 -253 -207
-56 -43 -109 -84 -118 -92 -9 -7 -29 -22 -45 -32 -15 -9 -30 -21 -33 -24 -11
-15 -315 -209 -327 -209 -7 0 -13 -3 -13 -7 0 -5 -10 -13 -23 -19 -12 -6 -58
-29 -102 -52 -44 -22 -87 -42 -95 -44 -8 -2 -18 -7 -21 -11 -3 -5 -12 -10 -20
-11 -8 -2 -27 -8 -44 -15 -95 -39 -269 -86 -284 -76 -5 3 -12 2 -15 -3 -5 -9
-195 -14 -210 -5 -5 3 -24 7 -43 9 -18 2 -39 7 -46 11 -6 4 -21 9 -31 10 -11
2 -35 13 -55 26 -20 12 -38 21 -41 20 -8 -2 -143 79 -164 99 -11 10 -23 18
-28 18 -24 0 -214 191 -263 265 -34 51 -39 60 -79 136 -35 67 -101 239 -91
239 3 0 0 12 -6 27 -29 77 -43 341 -25 493 10 94 16 128 31 195 7 33 11 63 9
67 -3 5 -1 8 4 8 5 0 9 6 9 13 0 18 39 153 69 238 66 191 246 567 325 681 11
14 19 29 19 32 0 3 26 46 57 94 32 48 63 97 69 109 23 41 176 258 185 261 5 2
9 8 9 13 0 11 131 183 253 333 18 21 36 45 40 52 4 8 13 14 20 13 7 0 46 -68
87 -152z"/>
</g>
</svg>
